HIERARCHY
ROOT Hips
{
	OFFSET 0.000000 35.082581 0.000000
	CHANNELS 6 Xposition Yposition Zposition Xrotation Yrotation Zrotation 
	JOINT Spine
	{
		OFFSET 0.000000 6.876099 0.125700
		CHANNELS 3 Xrotation Yrotation Zrotation
		JOINT Spine1
		{
			OFFSET 0.000000 5.730043 0.104720
			CHANNELS 3 Xrotation Yrotation Zrotation
			JOINT Spine1_split
			{
				OFFSET 0.000000 5.730043 0.104720
				CHANNELS 3 Xrotation Yrotation Zrotation
				JOINT Spine2
				{
					OFFSET 0.000000 5.730043 0.104720
					CHANNELS 3 Xrotation Yrotation Zrotation
					JOINT Neck
					{
						OFFSET 0.000000 10.314075 0.188496
						CHANNELS 3 Xrotation Yrotation Zrotation
						JOINT Head
						{
							OFFSET 0.000000 7.643700 -2.377400
							CHANNELS 3 Xrotation Yrotation Zrotation
							JOINT HeadTop_End
							{
								OFFSET 0.000000 43.788605 -13.619600
								CHANNELS 3 Xrotation Yrotation Zrotation
								End Site
								{
									OFFSET 0.000000 0.000000 0.000000
								}
							}
						}
					}
					JOINT LeftShoulder
					{
						OFFSET 2.196100 4.412489 0.087492
						CHANNELS 3 Xrotation Yrotation Zrotation
						JOINT LeftShoulder_split
						{
							OFFSET 2.196100 4.412489 0.087492
							CHANNELS 3 Xrotation Yrotation Zrotation
							JOINT LeftArm
							{
								OFFSET 8.771219 -2.981674 -0.026999
								CHANNELS 3 Xrotation Yrotation Zrotation
								JOINT LeftForeArm
								{
									OFFSET 8.512804 0.000000 -0.000000
									CHANNELS 3 Xrotation Yrotation Zrotation
									JOINT LeftHand
									{
										OFFSET 18.484802 0.000000 -0.000000
										CHANNELS 3 Xrotation Yrotation Zrotation
										JOINT LeftHandThumb1
										{
											OFFSET 2.499420 -1.158070 2.653252
											CHANNELS 3 Xrotation Yrotation Zrotation
											JOINT LeftHandThumb2
											{
												OFFSET 2.370079 -1.368366 1.368366
												CHANNELS 3 Xrotation Yrotation Zrotation
												JOINT LeftHandThumb3
												{
													OFFSET 2.676727 -1.545410 1.545409
													CHANNELS 3 Xrotation Yrotation Zrotation
													JOINT LeftHandThumb4
													{
														OFFSET 1.692226 -0.977005 0.977007
														CHANNELS 3 Xrotation Yrotation Zrotation
														End Site
														{
															OFFSET 0.000000 0.000000 0.000000
														}
													}
												}
											}
										}
										JOINT LeftHandIndex1
										{
											OFFSET 7.924831 -0.457527 2.345128
											CHANNELS 3 Xrotation Yrotation Zrotation
											JOINT LeftHandIndex2
											{
												OFFSET 3.643303 0.000000 0.000000
												CHANNELS 3 Xrotation Yrotation Zrotation
												JOINT LeftHandIndex3
												{
													OFFSET 3.810799 0.000000 0.000000
													CHANNELS 3 Xrotation Yrotation Zrotation
													JOINT LeftHandIndex4
													{
														OFFSET 2.403702 0.000000 0.000000
														CHANNELS 3 Xrotation Yrotation Zrotation
														End Site
														{
															OFFSET 0.000000 0.000000 0.000000
														}
													}
												}
											}
										}
										JOINT LeftHandMiddle1
										{
											OFFSET 8.563995 0.000000 -0.000000
											CHANNELS 3 Xrotation Yrotation Zrotation
											JOINT LeftHandMiddle2
											{
												OFFSET 3.861618 0.000000 0.000000
												CHANNELS 3 Xrotation Yrotation Zrotation
												JOINT LeftHandMiddle3
												{
													OFFSET 3.701603 0.000000 0.000000
													CHANNELS 3 Xrotation Yrotation Zrotation
													JOINT LeftHandMiddle4
													{
														OFFSET 2.322544 0.000000 0.000000
														CHANNELS 3 Xrotation Yrotation Zrotation
														End Site
														{
															OFFSET 0.000000 0.000000 0.000000
														}
													}
												}
											}
										}
										JOINT LeftHandRing1
										{
											OFFSET 8.426460 -0.424637 -3.286992
											CHANNELS 3 Xrotation Yrotation Zrotation
											JOINT LeftHandRing2
											{
												OFFSET 3.126408 0.000000 0.000000
												CHANNELS 3 Xrotation Yrotation Zrotation
												JOINT LeftHandRing3
												{
													OFFSET 3.085026 0.000000 0.000000
													CHANNELS 3 Xrotation Yrotation Zrotation
													JOINT LeftHandRing4
													{
														OFFSET 1.644005 0.000000 0.000000
														CHANNELS 3 Xrotation Yrotation Zrotation
														End Site
														{
															OFFSET 0.000000 0.000000 0.000000
														}
													}
												}
											}
										}
									}
								}
							}
						}
					}
					JOINT RightShoulder
					{
						OFFSET -2.196100 4.412496 0.070690
						CHANNELS 3 Xrotation Yrotation Zrotation
						JOINT RightShoulder_split
						{
							OFFSET -2.196100 4.412496 0.070690
							CHANNELS 3 Xrotation Yrotation Zrotation
							JOINT RightArm
							{
								OFFSET -8.771282 -2.981682 -0.094208
								CHANNELS 3 Xrotation Yrotation Zrotation
								JOINT RightForeArm
								{
									OFFSET -8.494598 0.000000 0.000000
									CHANNELS 3 Xrotation Yrotation Zrotation
									JOINT RightHand
									{
										OFFSET -18.483803 0.000000 0.000001
										CHANNELS 3 Xrotation Yrotation Zrotation
										JOINT RightHandThumb1
										{
											OFFSET -2.527351 -1.008072 2.575253
											CHANNELS 3 Xrotation Yrotation Zrotation
											JOINT RightHandThumb2
											{
												OFFSET -2.321518 -1.340328 1.340329
												CHANNELS 3 Xrotation Yrotation Zrotation
												JOINT RightHandThumb3
												{
													OFFSET -2.657753 -1.534454 1.534455
													CHANNELS 3 Xrotation Yrotation Zrotation
													JOINT RightHandThumb4
													{
														OFFSET -1.807510 -1.043568 1.043567
														CHANNELS 3 Xrotation Yrotation Zrotation
														End Site
														{
															OFFSET 0.000000 0.000000 0.000000
														}
													}
												}
											}
										}
										JOINT RightHandIndex1
										{
											OFFSET -8.811420 0.015533 2.887987
											CHANNELS 3 Xrotation Yrotation Zrotation
											JOINT RightHandIndex2
											{
												OFFSET -3.537502 0.000000 0.000000
												CHANNELS 3 Xrotation Yrotation Zrotation
												JOINT RightHandIndex3
												{
													OFFSET -3.356201 0.000000 0.000000
													CHANNELS 3 Xrotation Yrotation Zrotation
													JOINT RightHandIndex4
													{
														OFFSET -1.933098 0.000000 0.000000
														CHANNELS 3 Xrotation Yrotation Zrotation
														End Site
														{
															OFFSET 0.000000 0.000000 0.000000
														}
													}
												}
											}
										}
										JOINT RightHandMiddle1
										{
											OFFSET -8.178135 0.000000 0.000000
											CHANNELS 3 Xrotation Yrotation Zrotation
											JOINT RightHandMiddle2
											{
												OFFSET -3.901302 0.000000 0.000000
												CHANNELS 3 Xrotation Yrotation Zrotation
												JOINT RightHandMiddle3
												{
													OFFSET -3.909599 0.000000 0.000000
													CHANNELS 3 Xrotation Yrotation Zrotation
													JOINT RightHandMiddle4
													{
														OFFSET -2.376003 0.000000 0.000000
														CHANNELS 3 Xrotation Yrotation Zrotation
														End Site
														{
															OFFSET 0.000000 0.000000 0.000000
														}
													}
												}
											}
										}
										JOINT RightHandRing1
										{
											OFFSET -7.559013 0.014137 -2.865403
											CHANNELS 3 Xrotation Yrotation Zrotation
											JOINT RightHandRing2
											{
												OFFSET -3.449306 0.000000 0.000000
												CHANNELS 3 Xrotation Yrotation Zrotation
												JOINT RightHandRing3
												{
													OFFSET -3.362106 0.000000 0.000000
													CHANNELS 3 Xrotation Yrotation Zrotation
													JOINT RightHandRing4
													{
														OFFSET -2.076401 0.000000 0.000000
														CHANNELS 3 Xrotation Yrotation Zrotation
														End Site
														{
															OFFSET 0.000000 0.000000 0.000000
														}
													}
												}
											}
										}
									}
								}
							}
						}
					}
				}
			}
		}
	}
	JOINT LeftUpLeg
	{
		OFFSET 10.205400 -3.823500 0.155100
		CHANNELS 3 Xrotation Yrotation Zrotation
		JOINT LeftLeg
		{
			OFFSET 0.708757 -12.982077 0.567790
			CHANNELS 3 Xrotation Yrotation Zrotation
			JOINT LeftFoot
			{
				OFFSET -0.708756 -10.717838 -2.184338
				CHANNELS 3 Xrotation Yrotation Zrotation
				JOINT LeftToeBase
				{
					OFFSET 0.108149 -7.191104 7.560241
					CHANNELS 3 Xrotation Yrotation Zrotation
					JOINT LeftToe_End
					{
						OFFSET 0.070230 0.081724 4.490308
						CHANNELS 3 Xrotation Yrotation Zrotation
						End Site
						{
							OFFSET 0.000000 0.000000 0.000000
						}
					}
				}
			}
		}
	}
	JOINT RightUpLeg
	{
		OFFSET -10.205400 -3.823500 0.005500
		CHANNELS 3 Xrotation Yrotation Zrotation
		JOINT RightLeg
		{
			OFFSET -0.708756 -12.982134 0.610632
			CHANNELS 3 Xrotation Yrotation Zrotation
			JOINT RightFoot
			{
				OFFSET 0.708754 -10.717769 -1.945823
				CHANNELS 3 Xrotation Yrotation Zrotation
				JOINT RightToeBase
				{
					OFFSET -0.108140 -7.191069 7.372968
					CHANNELS 3 Xrotation Yrotation Zrotation
					JOINT RightToe_End
					{
						OFFSET -0.070227 0.081735 4.479403
						CHANNELS 3 Xrotation Yrotation Zrotation
						End Site
						{
							OFFSET 0.000000 0.000000 0.000000
						}
					}
				}
			}
		}
	}
}
MOTION
Frames: 5
Frame Time: 0.016667
0.519968 46.059784 7.451576 -92.610480 1.460861 4.260131 4.272484 -0.742864 0.480384 5.662845 -1.787561 -1.408118 0.000000 0.000000 0.000000 5.682632 -1.863436 -1.213449 -7.406062 -0.581397 1.811093 -13.802506 -2.716338 2.653907 -0.000001 0.000000 -0.000000 0.833467 0.643753 -7.065530 0.000000 0.000000 0.000000 35.730898 -29.399952 -39.106057 -0.000025 -86.008734 -0.000003 -14.794582 -4.980868 -2.151157 6.590526 -4.958676 16.122655 7.178840 21.567323 2.147321 -3.980808 36.507494 21.976018 -0.000003 0.000004 -0.000000 0.659511 4.932356 -26.024472 0.169792 1.401617 -13.813533 0.169790 1.401625 -13.813544 -0.000001 -0.000003 0.000000 1.376900 6.461951 -24.994174 0.169878 1.401982 -13.817116 0.169789 1.401630 -13.813553 -0.000001 0.000002 0.000002 2.098705 8.644305 -21.209679 0.169798 1.401620 -13.813542 0.169793 1.401619 -13.813532 0.000000 0.000003 0.000002 1.050855 -2.047993 18.147317 0.000000 0.000000 0.000000 -39.666091 52.653378 55.025903 -0.000071 100.264793 0.000048 -34.129957 33.547372 -4.808418 24.570550 30.236711 15.138926 9.301615 -39.834066 -3.735083 -3.574085 -23.455018 -18.375772 -0.000000 0.000000 -0.000000 -0.115171 -3.017699 29.162715 0.947763 -2.817920 37.173270 0.240837 -1.479697 18.487362 -0.000000 0.000001 0.000001 -2.076539 -3.537395 58.007806 2.575728 -4.167067 63.427445 1.714198 -3.611048 50.776931 0.000000 0.000001 0.000000 0.679033 -5.779032 70.144622 3.287911 -4.451751 72.883938 1.810686 -3.687538 52.292905 0.000001 -0.000000 -0.000001 -9.116779 12.575410 15.371592 16.566523 5.441123 3.828225 32.391701 30.020693 -32.550564 -8.533200 0.000008 -0.000006 0.000000 0.000002 -0.000001 -14.547210 -14.548829 -20.835338 25.274009 -3.634531 -7.148597 27.685996 -32.840485 35.295426 -2.926604 0.000007 0.000003 -0.000000 -0.000002 0.000002 
0.508066 46.026154 7.377975 -92.823125 1.329706 4.243117 4.234680 -0.731228 0.442501 5.577431 -1.781750 -1.434906 0.000000 0.000000 0.000000 5.572909 -1.863085 -1.240883 -7.427428 -0.598162 1.870911 -14.412107 -2.797162 2.806450 -0.000001 -0.000000 0.000000 0.795780 0.368577 -6.754121 0.000000 0.000000 0.000000 35.724345 -29.362625 -39.579088 -0.000195 -85.982273 -0.000171 -14.760418 -4.934451 -2.109628 6.590529 -4.958679 16.122655 7.178841 21.567323 2.147320 -3.980814 36.507498 21.976012 -0.000000 0.000001 -0.000007 0.659513 4.932358 -26.024477 0.169788 1.401619 -13.813533 0.169796 1.401627 -13.813545 0.000001 -0.000003 -0.000000 1.376901 6.461955 -24.994181 0.169883 1.401983 -13.817119 0.169791 1.401628 -13.813553 0.000000 0.000004 -0.000001 2.098703 8.644310 -21.209682 0.169800 1.401616 -13.813544 0.169799 1.401615 -13.813534 0.000001 0.000001 0.000000 1.046851 -1.901961 17.705237 0.000000 0.000000 0.000000 -41.695552 52.153204 56.287343 -0.000070 98.952106 0.000039 -34.567041 34.030089 -4.422377 24.570552 30.236718 15.138945 9.301604 -39.834039 -3.735097 -3.574068 -23.455016 -18.375779 -0.000000 -0.000000 0.000001 -0.115187 -3.017696 29.162712 0.947769 -2.817940 37.173277 0.240827 -1.479689 18.487362 0.000001 -0.000003 -0.000000 -2.076529 -3.537383 58.007834 2.575714 -4.167075 63.427425 1.714205 -3.611041 50.776945 0.000001 -0.000002 0.000001 0.679050 -5.779033 70.144595 3.287927 -4.451743 72.883938 1.810697 -3.687545 52.292905 0.000000 0.000002 0.000001 -8.507212 12.806832 15.250247 16.688695 5.414890 3.909045 32.223641 30.813258 -33.047078 -8.559295 0.000007 -0.000003 -0.000000 -0.000003 0.000000 -14.554022 -14.767762 -20.908614 25.287348 -3.534596 -7.052628 28.013401 -32.827692 35.124166 -3.139194 0.000014 -0.000005 0.000000 -0.000000 0.000001 
0.494748 45.992302 7.328239 -92.969134 1.281602 4.225829 4.228570 -0.712713 0.410089 5.498812 -1.756072 -1.456301 0.000000 0.000000 0.000000 5.557750 -1.836371 -1.256271 -7.364470 -0.607705 1.904431 -14.429604 -2.818836 2.924230 0.000000 0.000000 -0.000001 0.752565 0.149308 -6.556108 0.000000 0.000000 0.000000 35.791663 -29.405597 -39.728471 -0.000124 -85.965649 -0.000052 -14.823935 -4.926964 -1.997090 6.590526 -4.958677 16.122658 7.178846 21.567320 2.147325 -3.980805 36.507498 21.976018 -0.000006 0.000001 -0.000003 0.659512 4.932356 -26.024482 0.169791 1.401619 -13.813534 0.169794 1.401627 -13.813544 -0.000001 0.000001 0.000000 1.376896 6.461951 -24.994186 0.169882 1.401979 -13.817119 0.169787 1.401632 -13.813554 0.000005 0.000001 0.000000 2.098698 8.644306 -21.209684 0.169799 1.401617 -13.813543 0.169795 1.401623 -13.813536 0.000004 0.000001 -0.000000 1.031391 -1.759342 17.391837 0.000000 0.000000 0.000000 -42.645143 51.582084 56.777088 -0.000100 97.838314 0.000080 -34.847086 34.643764 -3.962463 24.570571 30.236715 15.138938 9.301618 -39.834053 -3.735092 -3.574074 -23.455020 -18.375775 -0.000001 0.000000 -0.000000 -0.115169 -3.017701 29.162726 0.947780 -2.817934 37.173277 0.240843 -1.479693 18.487358 0.000001 -0.000004 -0.000002 -2.076524 -3.537393 58.007847 2.575714 -4.167068 63.427425 1.714191 -3.611044 50.776924 0.000002 0.000000 0.000000 0.679056 -5.779051 70.144615 3.287917 -4.451756 72.883938 1.810700 -3.687551 52.292885 0.000001 0.000002 0.000001 -8.109733 12.883759 15.212824 16.925101 5.362117 3.988742 32.140162 31.244564 -33.361898 -8.606501 0.000025 -0.000023 0.000000 -0.000000 0.000000 -14.529423 -14.930090 -20.999772 25.287505 -3.462011 -6.931254 28.363508 -32.812738 35.017728 -3.401595 0.000053 -0.000010 0.000000 -0.000000 0.000000 
0.484162 45.968788 7.289410 -93.004459 1.209663 4.186480 4.239638 -0.692283 0.394680 5.508379 -1.714588 -1.460458 0.000000 0.000000 0.000000 5.567318 -1.797903 -1.270686 -7.160148 -0.610770 1.930707 -13.898868 -2.777516 3.041225 -0.000000 0.000000 0.000000 0.749807 0.216467 -6.485382 0.000000 0.000000 0.000000 35.680372 -29.527423 -39.791763 -0.000003 -85.903467 0.000060 -14.753361 -4.901665 -2.106214 6.590528 -4.958679 16.122656 7.178841 21.567320 2.147316 -3.980802 36.507498 21.976012 0.000000 0.000003 -0.000003 0.659511 4.932352 -26.024477 0.169790 1.401616 -13.813537 0.169796 1.401629 -13.813541 0.000001 0.000001 -0.000001 1.376896 6.461955 -24.994177 0.169883 1.401980 -13.817119 0.169788 1.401628 -13.813552 0.000002 0.000001 0.000002 2.098704 8.644310 -21.209684 0.169800 1.401617 -13.813546 0.169795 1.401621 -13.813537 -0.000000 0.000001 0.000001 1.021782 -1.623930 17.128456 0.000000 0.000000 0.000000 -43.055395 51.175483 56.795321 -0.000028 96.870640 -0.000009 -35.048019 35.074510 -3.705406 24.570564 30.236701 15.138928 9.301595 -39.834053 -3.735094 -3.574073 -23.455015 -18.375768 0.000000 0.000000 0.000003 -0.115173 -3.017706 29.162726 0.947775 -2.817942 37.173270 0.240838 -1.479699 18.487369 0.000000 -0.000000 0.000001 -2.076513 -3.537397 58.007840 2.575718 -4.167061 63.427438 1.714188 -3.611041 50.776931 0.000002 0.000000 0.000000 0.679060 -5.779055 70.144622 3.287920 -4.451752 72.883931 1.810692 -3.687551 52.292915 0.000001 0.000001 0.000001 -7.967842 12.844987 15.294505 17.283102 5.282900 4.068076 32.140586 31.268234 -33.447614 -8.548025 0.000012 -0.000020 0.000000 -0.000003 0.000001 -14.571408 -14.993723 -20.996321 25.295556 -3.364063 -6.916501 28.740893 -32.795751 34.943337 -3.729735 0.000028 -0.000010 -0.000000 0.000003 -0.000001 
0.476380 45.959930 7.269474 -92.928576 1.135779 4.129640 4.265640 -0.671095 0.395586 5.555472 -1.676086 -1.446812 0.000000 0.000000 0.000000 5.614040 -1.763748 -1.275981 -6.848939 -0.568000 1.851871 -12.821036 -2.678194 3.067696 -0.000000 -0.000000 0.000000 0.758805 0.358500 -6.446022 0.000000 0.000000 0.000000 35.602030 -29.770626 -39.668735 0.000108 -85.806499 0.000175 -14.766785 -4.951836 -2.141304 6.590525 -4.958675 16.122655 7.178840 21.567321 2.147317 -3.980807 36.507491 21.976014 -0.000003 -0.000001 -0.000001 0.659509 4.932356 -26.024482 0.169792 1.401619 -13.813535 0.169792 1.401625 -13.813544 0.000000 0.000001 0.000002 1.376896 6.461957 -24.994179 0.169882 1.401979 -13.817120 0.169795 1.401632 -13.813554 0.000004 0.000004 0.000001 2.098697 8.644308 -21.209684 0.169804 1.401619 -13.813545 0.169795 1.401621 -13.813533 -0.000000 -0.000002 -0.000001 1.056711 -1.497101 16.955238 0.000000 0.000000 0.000000 -42.526260 51.008686 56.077089 -0.000232 96.300162 0.000202 -35.264803 35.244408 -3.939579 24.570550 30.236722 15.138935 9.301582 -39.834046 -3.735117 -3.574070 -23.455025 -18.375772 -0.000003 -0.000001 0.000003 -0.115175 -3.017698 29.162715 0.947770 -2.817929 37.173277 0.240833 -1.479698 18.487358 -0.000004 -0.000002 -0.000001 -2.076521 -3.537396 58.007827 2.575716 -4.167071 63.427425 1.714205 -3.611048 50.776945 -0.000002 -0.000002 0.000002 0.679066 -5.779035 70.144622 3.287891 -4.451756 72.883931 1.810705 -3.687546 52.292905 -0.000001 -0.000001 0.000001 -8.013372 12.764897 15.376844 17.598664 5.213930 4.144921 32.189415 31.275631 -33.509933 -8.483640 0.000013 0.000000 0.000000 -0.000003 0.000000 -14.684087 -14.985968 -20.930428 25.284831 -3.336683 -6.930430 29.183052 -32.782975 34.921326 -4.074028 0.000010 -0.000007 0.000002 0.000003 -0.000001 
